HIERARCHY
ROOT Hips
{
	OFFSET 0.000000 71.427986 0.000000
	CHANNELS 6 Xposition Yposition Zposition Xrotation Yrotation Zrotation
	JOINT Pelvis
	{
		OFFSET 0.000000 0.000000 0.000000
		CHANNELS 3 Xrotation Yrotation Zrotation
		JOINT LeftUpLeg
		{
			OFFSET 6.797100 -2.508499 -1.318700
			CHANNELS 3 Xrotation Yrotation Zrotation
			JOINT LeftLeg
			{
				OFFSET 0.069008 -29.241863 0.690200
				CHANNELS 3 Xrotation Yrotation Zrotation
				JOINT LeftFoot
				{
					OFFSET -0.069008 -29.568123 -0.266800
					CHANNELS 3 Xrotation Yrotation Zrotation
					JOINT LeftToeBase
					{
						OFFSET 3.145500 -8.631000 16.059900
						CHANNELS 3 Xrotation Yrotation Zrotation
						End Site
						{
							OFFSET 0.000000 18.501587 0.000000
						}
					}
				}
			}
			JOINT Left_ShortSleeve
			{
				OFFSET 0.265923 -10.480953 1.153800
				CHANNELS 3 Xrotation Yrotation Zrotation
				End Site
				{
					OFFSET 1.725763 19.823879 0.000000
				}
			}
		}
		JOINT RightUpLeg
		{
			OFFSET -6.797100 -2.508499 -1.318700
			CHANNELS 3 Xrotation Yrotation Zrotation
			JOINT RightLeg
			{
				OFFSET -0.082453 -29.241932 0.688000
				CHANNELS 3 Xrotation Yrotation Zrotation
				JOINT RightFoot
				{
					OFFSET 0.082453 -29.568058 -0.264600
					CHANNELS 3 Xrotation Yrotation Zrotation
					JOINT RightToeBase
					{
						OFFSET -3.115300 -8.682800 16.113400
						CHANNELS 3 Xrotation Yrotation Zrotation
						End Site
						{
							OFFSET 0.000000 18.567114 0.000000
						}
					}
				}
			}
			JOINT Right_ShortSleeve
			{
				OFFSET -0.265923 -10.480953 1.153800
				CHANNELS 3 Xrotation Yrotation Zrotation
				End Site
				{
					OFFSET -1.725766 19.823910 0.000000
				}
			}
		}
	}
	JOINT Spine
	{
		OFFSET 0.000000 13.368103 0.470500
		CHANNELS 3 Xrotation Yrotation Zrotation
		JOINT Spine1
		{
			OFFSET 0.147000 13.837402 0.538800
			CHANNELS 3 Xrotation Yrotation Zrotation
			JOINT Spine2
			{
				OFFSET 0.168000 16.242897 -1.435500
				CHANNELS 3 Xrotation Yrotation Zrotation
				JOINT Neck
				{
					OFFSET 0.217200 18.631500 -1.679100
					CHANNELS 3 Xrotation Yrotation Zrotation
					JOINT Head
					{
						OFFSET 0.000000 6.599396 1.385900
						CHANNELS 3 Xrotation Yrotation Zrotation
						JOINT Hat
						{
							OFFSET -0.532200 27.220596 -10.096100
							CHANNELS 3 Xrotation Yrotation Zrotation
							End Site
							{
								OFFSET 0.000000 22.029861 0.000000
							}
						}
						JOINT HairD
						{
							OFFSET -10.777400 17.437393 -1.325900
							CHANNELS 3 Xrotation Yrotation Zrotation
							JOINT HairD1
							{
								OFFSET -3.290299 -11.051193 1.062200
								CHANNELS 3 Xrotation Yrotation Zrotation
								End Site
								{
									OFFSET 0.000000 11.579437 0.000000
								}
							}
						}
						JOINT HairB
						{
							OFFSET -10.777400 17.437393 1.467900
							CHANNELS 3 Xrotation Yrotation Zrotation
							JOINT HairB1
							{
								OFFSET -1.561200 -12.956299 3.590200
								CHANNELS 3 Xrotation Yrotation Zrotation
								End Site
								{
									OFFSET 0.000000 13.534866 0.000000
								}
							}
						}
						JOINT HairA
						{
							OFFSET 9.713100 17.437393 1.467900
							CHANNELS 3 Xrotation Yrotation Zrotation
							JOINT HairA1
							{
								OFFSET 1.561200 -12.956299 3.590200
								CHANNELS 3 Xrotation Yrotation Zrotation
								End Site
								{
									OFFSET 0.000000 13.534866 0.000000
								}
							}
						}
						JOINT HairC
						{
							OFFSET 9.713100 17.437393 -1.325900
							CHANNELS 3 Xrotation Yrotation Zrotation
							JOINT HairC1
							{
								OFFSET 3.290300 -11.051193 1.062200
								CHANNELS 3 Xrotation Yrotation Zrotation
								End Site
								{
									OFFSET 0.000000 11.579437 0.000000
								}
							}
						}
					}
				}
				JOINT LeftShoulder
				{
					OFFSET 5.101800 15.108002 -2.763700
					CHANNELS 3 Xrotation Yrotation Zrotation
					JOINT LeftArm
					{
						OFFSET 9.825497 2.506317 -1.597400
						CHANNELS 3 Xrotation Yrotation Zrotation
						JOINT LeftForeArm
						{
							OFFSET 21.966244 0.000000 0.000000
							CHANNELS 3 Xrotation Yrotation Zrotation
							JOINT LeftHand
							{
								OFFSET 33.879036 0.000000 0.000000
								CHANNELS 3 Xrotation Yrotation Zrotation
								JOINT LeftHandThumb1
								{
									OFFSET 6.715286 -2.359680 3.363841
									CHANNELS 3 Xrotation Yrotation Zrotation
									JOINT LeftHandThumb2
									{
										OFFSET 2.507072 -1.447464 1.447461
										CHANNELS 3 Xrotation Yrotation Zrotation
										JOINT LeftHandThumb3
										{
											OFFSET 2.898338 -1.673355 1.673357
											CHANNELS 3 Xrotation Yrotation Zrotation
											End Site
											{
												OFFSET -0.295959 3.727692 -0.131651
											}
										}
									}
								}
								JOINT LeftHandIndex1
								{
									OFFSET 14.190811 -0.254547 3.840278
									CHANNELS 3 Xrotation Yrotation Zrotation
									JOINT LeftHandIndex2
									{
										OFFSET 3.551727 0.000000 -0.000000
										CHANNELS 3 Xrotation Yrotation Zrotation
										JOINT LeftHandIndex3
										{
											OFFSET 2.894196 0.000000 0.000000
											CHANNELS 3 Xrotation Yrotation Zrotation
											End Site
											{
												OFFSET -1.000603 2.690872 0.366626
											}
										}
									}
								}
								JOINT LeftHandMiddle1
								{
									OFFSET 13.776489 0.000000 0.000000
									CHANNELS 3 Xrotation Yrotation Zrotation
									JOINT LeftHandMiddle2
									{
										OFFSET 3.438232 0.000000 0.000000
										CHANNELS 3 Xrotation Yrotation Zrotation
										JOINT LeftHandMiddle3
										{
											OFFSET 3.691551 0.000000 0.000000
											CHANNELS 3 Xrotation Yrotation Zrotation
											End Site
											{
												OFFSET -1.082298 3.499527 0.457670
											}
										}
									}
								}
								JOINT LeftHandRing1
								{
									OFFSET 13.966164 -0.268127 -3.067488
									CHANNELS 3 Xrotation Yrotation Zrotation
									JOINT LeftHandRing2
									{
										OFFSET 3.162567 0.000000 0.000000
										CHANNELS 3 Xrotation Yrotation Zrotation
										JOINT LeftHandRing3
										{
											OFFSET 3.324348 0.000000 0.000000
											CHANNELS 3 Xrotation Yrotation Zrotation
											End Site
											{
												OFFSET -0.861900 3.184998 0.405154
											}
										}
									}
								}
								JOINT LeftHandPinky1
								{
									OFFSET 13.131393 -0.168503 -5.746925
									CHANNELS 3 Xrotation Yrotation Zrotation
									JOINT LeftHandPinky2
									{
										OFFSET 2.849182 0.000000 0.000000
										CHANNELS 3 Xrotation Yrotation Zrotation
										JOINT LeftHandPinky3
										{
											OFFSET 2.805038 0.000000 0.000000
											CHANNELS 3 Xrotation Yrotation Zrotation
											End Site
											{
												OFFSET -0.882500 2.642609 0.325652
											}
										}
									}
								}
							}
							JOINT Left_Sleeve
							{
								OFFSET 6.592125 -0.646545 0.805568
								CHANNELS 3 Xrotation Yrotation Zrotation
								End Site
								{
									OFFSET -0.000179 20.275787 -0.000000
								}
							}
						}
					}
				}
				JOINT RightShoulder
				{
					OFFSET -5.731700 15.108002 -2.763700
					CHANNELS 3 Xrotation Yrotation Zrotation
					JOINT RightArm
					{
						OFFSET -9.825497 2.506317 -1.597400
						CHANNELS 3 Xrotation Yrotation Zrotation
						JOINT RightForeArm
						{
							OFFSET -21.966242 0.000000 0.000000
							CHANNELS 3 Xrotation Yrotation Zrotation
							JOINT RightHand
							{
								OFFSET -33.879032 0.000000 0.000000
								CHANNELS 3 Xrotation Yrotation Zrotation
								JOINT RightHandThumb1
								{
									OFFSET -6.715286 -2.359680 3.363841
									CHANNELS 3 Xrotation Yrotation Zrotation
									JOINT RightHandThumb2
									{
										OFFSET -2.507072 -1.447464 1.447461
										CHANNELS 3 Xrotation Yrotation Zrotation
										JOINT RightHandThumb3
										{
											OFFSET -2.898338 -1.673355 1.673357
											CHANNELS 3 Xrotation Yrotation Zrotation
											End Site
											{
												OFFSET 0.295959 3.727692 -0.131651
											}
										}
									}
								}
								JOINT RightHandIndex1
								{
									OFFSET -14.190811 -0.254547 3.840278
									CHANNELS 3 Xrotation Yrotation Zrotation
									JOINT RightHandIndex2
									{
										OFFSET -3.551727 0.000000 -0.000000
										CHANNELS 3 Xrotation Yrotation Zrotation
										JOINT RightHandIndex3
										{
											OFFSET -2.894196 0.000000 0.000000
											CHANNELS 3 Xrotation Yrotation Zrotation
											End Site
											{
												OFFSET 1.000603 2.690872 0.366626
											}
										}
									}
								}
								JOINT RightHandMiddle1
								{
									OFFSET -13.776489 0.000000 0.000000
									CHANNELS 3 Xrotation Yrotation Zrotation
									JOINT RightHandMiddle2
									{
										OFFSET -3.438232 0.000000 0.000000
										CHANNELS 3 Xrotation Yrotation Zrotation
										JOINT RightHandMiddle3
										{
											OFFSET -3.691551 0.000000 0.000000
											CHANNELS 3 Xrotation Yrotation Zrotation
											End Site
											{
												OFFSET 1.082298 3.499527 0.457670
											}
										}
									}
								}
								JOINT RightHandRing1
								{
									OFFSET -13.966164 -0.268127 -3.067488
									CHANNELS 3 Xrotation Yrotation Zrotation
									JOINT RightHandRing2
									{
										OFFSET -3.162567 0.000000 0.000000
										CHANNELS 3 Xrotation Yrotation Zrotation
										JOINT RightHandRing3
										{
											OFFSET -3.324348 0.000000 0.000000
											CHANNELS 3 Xrotation Yrotation Zrotation
											End Site
											{
												OFFSET 0.861900 3.184998 0.405154
											}
										}
									}
								}
								JOINT RightHandPinky1
								{
									OFFSET -13.131393 -0.168503 -5.746925
									CHANNELS 3 Xrotation Yrotation Zrotation
									JOINT RightHandPinky2
									{
										OFFSET -2.849182 0.000000 0.000000
										CHANNELS 3 Xrotation Yrotation Zrotation
										JOINT RightHandPinky3
										{
											OFFSET -2.805038 0.000000 0.000000
											CHANNELS 3 Xrotation Yrotation Zrotation
											End Site
											{
												OFFSET 0.882500 2.642609 0.325652
											}
										}
									}
								}
							}
							JOINT Right_Sleeve
							{
								OFFSET -6.592125 -0.646545 0.805568
								CHANNELS 3 Xrotation Yrotation Zrotation
								End Site
								{
									OFFSET 0.000179 20.275787 -0.000000
								}
							}
						}
					}
				}
				JOINT Bind_Right_JacketString
				{
					OFFSET -3.534800 11.969597 7.200700
					CHANNELS 3 Xrotation Yrotation Zrotation
					JOINT Bind_Right_JacketString1
					{
						OFFSET -0.319900 -6.102600 2.794100
						CHANNELS 3 Xrotation Yrotation Zrotation
						End Site
						{
							OFFSET 0.000000 6.719452 0.000000
						}
					}
				}
				JOINT Bind_Left_JacketString
				{
					OFFSET 2.904800 11.969597 7.200700
					CHANNELS 3 Xrotation Yrotation Zrotation
					JOINT Bind_Left_JacketString1
					{
						OFFSET 0.364800 -5.904503 3.186800
						CHANNELS 3 Xrotation Yrotation Zrotation
						End Site
						{
							OFFSET 0.000000 6.719513 0.000000
						}
					}
				}
				JOINT HairE
				{
					OFFSET 5.915200 17.612701 -11.592200
					CHANNELS 3 Xrotation Yrotation Zrotation
					JOINT HairE1
					{
						OFFSET 0.289200 -7.171898 -1.284500
						CHANNELS 3 Xrotation Yrotation Zrotation
						End Site
						{
							OFFSET 0.000000 7.291756 0.000000
						}
					}
				}
				JOINT HairF
				{
					OFFSET -0.864800 17.612701 -11.592200
					CHANNELS 3 Xrotation Yrotation Zrotation
					JOINT HairF1
					{
						OFFSET 0.000000 -14.087097 -2.127501
						CHANNELS 3 Xrotation Yrotation Zrotation
						End Site
						{
							OFFSET 0.000000 14.246841 0.000000
						}
					}
				}
				JOINT HairG
				{
					OFFSET -8.087700 17.612701 -11.592200
					CHANNELS 3 Xrotation Yrotation Zrotation
					JOINT HairG1
					{
						OFFSET -0.293600 -6.081398 -0.910100
						CHANNELS 3 Xrotation Yrotation Zrotation
						End Site
						{
							OFFSET 0.000000 6.156120 0.000000
						}
					}
				}
			}
		}
	}
	JOINT Pouch
	{
		OFFSET 0.000000 4.394501 10.847300
		CHANNELS 3 Xrotation Yrotation Zrotation
		End Site
		{
			OFFSET 0.000000 21.880577 0.000000
		}
	}
	JOINT Bag
	{
		OFFSET -13.229000 4.813004 -0.593300
		CHANNELS 3 Xrotation Yrotation Zrotation
		End Site
		{
			OFFSET 0.000000 21.880577 0.000000
		}
	}
	JOINT OccupyGuyFacialAnim_Joint
	{
		OFFSET 1.000000 -70.206398 -1.655000
		CHANNELS 3 Xrotation Yrotation Zrotation
		End Site
		{
			OFFSET 0.000000 21.880577 0.000000
		}
	}
}
MOTION
Frames: 4
Frame Time: 0.016667
-0.863814 63.626038 0.767552 3.013708 -58.244568 6.565684 -0.000000 -0.000002 0.000000 -32.626092 11.151028 23.547499 43.775823 -8.035157 -9.925906 -13.046814 -2.694401 -7.240223 -0.000000 0.000002 0.000000 0.000001 0.000000 -0.000001 -30.695037 -9.745340 -24.744563 48.823930 2.523641 -7.653120 -22.400249 2.490489 19.773072 -0.000000 -0.000000 0.000000 -0.000000 0.000000 -0.000001 11.191578 0.099412 -2.783157 8.434586 0.027682 -5.592311 8.457041 0.027889 -5.591873 -21.555736 25.063376 12.062605 -0.294015 25.465836 -3.208973 0.000000 -0.000000 0.000000 0.000000 -0.000000 0.000000 0.000000 -0.000000 0.000000 0.000000 -0.000000 -0.000001 0.000000 -0.000000 0.000000 0.000000 -0.000000 -0.000001 0.000000 -0.000000 0.000000 0.000000 -0.000000 0.000000 0.000000 -0.000000 0.000000 -6.221668 -11.503793 -4.023835 -23.061662 9.569078 -36.639730 0.046293 -43.170842 -0.011032 22.743606 -5.684974 15.978963 -1.064215 -7.954933 8.490089 2.373414 19.986100 -2.038328 -0.000000 0.000001 0.000001 13.340887 -1.006674 10.682289 -0.167598 0.303412 -31.105662 0.000002 -0.000001 0.000001 8.495429 -0.329528 -0.915314 0.231519 0.661193 -29.901817 0.000001 0.000000 0.000001 6.111753 3.150884 -16.210950 0.047075 0.322425 -30.125458 0.000001 -0.000000 -0.000004 -5.636024 7.709900 -13.878618 0.224364 0.276579 -46.588375 -0.000001 -0.000001 0.000001 -0.000001 0.000002 -0.000006 -5.488246 10.658257 2.466556 -41.473175 -26.756173 30.079460 24.953741 111.863957 -23.306689 -8.702499 12.422809 -9.802166 0.264996 10.061088 -10.888493 1.383813 -17.412869 3.016275 -0.000001 -0.000001 0.000000 19.443604 11.174426 -13.340182 -0.118662 -0.322692 18.035611 0.000000 0.000001 0.000000 4.320454 2.436969 -4.811715 0.349134 -0.461259 26.890310 0.000002 0.000004 -0.000000 -7.005618 -10.695128 5.719854 0.111857 -0.089195 26.155904 -0.000000 0.000003 0.000007 -19.433502 -20.238214 5.987869 0.223753 -0.085770 36.844632 0.000001 0.000002 0.000004 -0.000000 0.000003 0.000000 -0.000002 0.000000 0.000002 -0.000000 -0.000002 0.000001 -0.000002 0.000000 0.000001 -0.000002 0.000000 0.000001 -0.000002 0.000000 0.000002 -0.000000 -0.000002 0.000001 -0.000002 0.000000 0.000001 -0.000002 0.000000 0.000001 -0.000002 0.000000 0.000002 -0.000000 -0.000002 0.000001 -0.000000 -0.000002 0.000000 -0.000000 -0.000002 0.000000 -0.000000 -0.000002 0.000000 
-0.854680 63.626907 0.795905 3.037271 -58.214536 6.585019 0.000000 -0.000000 -0.000000 -32.652051 11.152292 23.522499 43.804004 -8.055938 -9.932827 -13.068500 -2.698751 -7.201718 0.000000 0.000002 -0.000000 -0.000000 -0.000002 -0.000000 -30.672201 -9.744388 -24.769661 48.773889 2.503104 -7.649975 -22.380915 2.484702 19.812509 -0.000000 -0.000002 -0.000000 -0.000001 -0.000000 -0.000000 11.191592 0.098479 -2.786511 8.434581 0.027701 -5.592322 8.457057 0.027860 -5.591858 -21.547782 25.033955 12.079119 -0.272048 25.428509 -3.263953 -0.000000 -0.000000 0.000000 -0.000000 -0.000000 0.000000 -0.000000 -0.000000 0.000001 -0.000000 -0.000000 0.000000 -0.000000 -0.000000 0.000000 -0.000000 -0.000000 0.000000 -0.000000 -0.000000 0.000000 -0.000000 -0.000000 0.000000 -0.000000 -0.000000 0.000000 -6.224963 -11.506063 -4.040200 -23.270316 9.617862 -36.667864 0.069770 -43.129496 0.031129 23.501496 -5.369473 16.129548 -1.038526 -7.796629 8.549069 2.420530 20.133384 -1.982857 -0.000002 0.000001 0.000002 13.341395 -1.007223 10.512651 -0.167399 0.303509 -31.275375 0.000001 -0.000001 -0.000000 8.492719 -0.327814 -1.084965 0.232467 0.661744 -30.071513 0.000001 0.000002 0.000001 6.109964 3.152828 -16.380438 0.047142 0.323627 -30.295174 -0.000000 -0.000000 -0.000003 -5.636752 7.710931 -14.047780 0.225075 0.277140 -46.757983 0.000000 -0.000001 -0.000002 0.000002 -0.000001 0.000002 -5.494062 10.657933 2.495529 -41.054440 -26.626313 30.531601 28.810103 112.648254 -27.515649 -7.502673 11.836818 -10.784954 0.243516 10.220482 -10.828476 1.330416 -17.266334 3.075583 -0.000000 0.000000 0.000001 19.443330 11.174233 -13.513173 -0.118820 -0.322581 17.863212 -0.000001 0.000000 0.000004 4.323248 2.438532 -4.984191 0.348167 -0.460560 26.717931 -0.000001 0.000000 -0.000001 -7.004223 -10.693708 5.546732 0.111868 -0.088037 25.983457 0.000001 0.000001 -0.000000 -19.432978 -20.237547 5.812517 0.223216 -0.085083 36.672194 -0.000001 -0.000003 -0.000002 0.000001 0.000001 0.000001 -0.000000 0.000001 -0.000002 -0.000002 0.000002 -0.000001 -0.000000 0.000001 -0.000003 -0.000000 0.000001 -0.000003 -0.000000 0.000001 -0.000002 -0.000002 0.000002 -0.000001 -0.000000 0.000001 -0.000003 -0.000000 0.000001 -0.000003 -0.000000 0.000001 -0.000002 -0.000002 0.000002 -0.000001 0.000000 -0.000000 -0.000000 0.000000 -0.000000 -0.000000 0.000000 -0.000000 -0.000000 
-0.827623 63.630333 0.876436 3.058521 -58.183998 6.604189 0.000000 -0.000000 -0.000000 -32.682325 11.162562 23.456268 43.895966 -8.074423 -9.949508 -13.146155 -2.707221 -7.111794 0.000000 -0.000002 -0.000000 0.000003 -0.000002 -0.000000 -30.608315 -9.745498 -24.851363 48.638771 2.510294 -7.637116 -22.319276 2.475975 19.896659 0.000000 -0.000000 -0.000000 -0.000000 -0.000002 0.000001 11.191631 0.095961 -2.796631 8.427928 0.021796 -5.590526 8.450542 0.024346 -5.590737 -21.522824 24.948437 12.125789 -0.210773 25.320599 -3.422931 -0.000000 -0.000000 -0.000001 -0.000000 -0.000000 -0.000001 -0.000000 -0.000000 -0.000000 -0.000000 -0.000000 -0.000000 -0.000000 0.000000 -0.000001 -0.000000 -0.000000 -0.000000 -0.000000 0.000000 -0.000001 -0.000000 -0.000000 -0.000001 -0.000000 -0.000000 -0.000001 -6.234557 -11.512572 -4.088060 -23.549886 9.594482 -36.642572 0.138467 -42.979256 0.153724 24.249779 -5.074749 16.216157 -1.011766 -7.630815 8.610749 2.469892 20.287595 -1.924801 -0.000000 -0.000000 0.000000 13.341951 -1.007881 10.334939 -0.167213 0.303564 -31.453055 0.000001 0.000001 -0.000003 8.489880 -0.326089 -1.262657 0.233447 0.662286 -30.249292 -0.000000 0.000001 0.000004 6.109450 3.154868 -16.558096 0.047217 0.324742 -30.472845 -0.000001 -0.000000 0.000006 -5.635096 7.712076 -14.225267 0.225747 0.277687 -46.935762 0.000001 0.000001 -0.000001 0.000002 -0.000001 0.000001 -5.511187 10.663444 2.580822 -40.669433 -26.535534 30.926588 30.091939 112.878459 -29.366385 -7.446027 11.442782 -11.863740 0.220557 10.390407 -10.764411 1.272186 -17.106779 3.140225 -0.000001 0.000002 -0.000002 19.443045 11.174022 -13.701394 -0.118998 -0.322424 17.675444 0.000000 -0.000003 -0.000000 4.326288 2.440255 -5.171987 0.347180 -0.459878 26.530157 -0.000001 -0.000000 -0.000001 -7.002683 -10.692158 5.358378 0.111903 -0.086794 25.795755 -0.000002 -0.000001 0.000005 -19.432416 -20.236759 5.622096 0.222557 -0.084420 36.484456 -0.000000 0.000002 -0.000001 0.000001 -0.000001 0.000001 -0.000001 -0.000001 -0.000001 -0.000001 -0.000001 -0.000001 -0.000001 -0.000001 0.000001 -0.000001 -0.000001 0.000001 -0.000001 -0.000001 -0.000001 -0.000001 -0.000001 -0.000001 -0.000001 -0.000001 0.000001 -0.000001 -0.000001 0.000001 -0.000001 -0.000001 -0.000001 -0.000001 -0.000001 -0.000001 0.000000 -0.000000 -0.000000 0.000000 -0.000000 -0.000000 0.000000 -0.000000 -0.000000 
-0.783783 63.636024 1.005653 3.079151 -58.153276 6.624285 -0.000000 0.000002 0.000000 -32.716825 11.182108 23.351375 44.045534 -8.090047 -9.974872 -13.274761 -2.719875 -6.972477 0.000000 -0.000000 0.000000 -0.000000 -0.000004 -0.000002 -30.504841 -9.747220 -24.984094 48.421178 2.540189 -7.614998 -22.216478 2.464823 20.022522 0.000000 -0.000000 -0.000000 0.000000 -0.000000 -0.000001 11.191394 0.087930 -2.812299 8.417022 0.011622 -5.587463 8.439832 0.017446 -5.588561 -21.483277 24.810491 12.200237 -0.116154 25.146472 -3.675490 0.000000 -0.000000 -0.000000 0.000000 -0.000000 -0.000000 0.000000 -0.000000 0.000000 0.000000 -0.000000 -0.000001 0.000000 -0.000000 -0.000001 0.000000 -0.000000 -0.000001 0.000000 -0.000000 -0.000001 0.000000 -0.000000 -0.000000 0.000000 -0.000000 -0.000000 -6.250116 -11.523034 -4.165730 -23.890550 9.502018 -36.578907 0.247197 -42.732310 0.348566 24.987919 -4.799919 16.250156 -0.984030 -7.458099 8.674861 2.521179 20.448133 -1.864334 0.000001 0.000002 0.000001 13.342521 -1.008606 10.149952 -0.167022 0.303732 -31.638099 0.000001 -0.000000 0.000005 8.486898 -0.324310 -1.447684 0.234525 0.663175 -30.434292 0.000001 0.000000 0.000001 6.108903 3.156996 -16.743046 0.047342 0.325765 -30.657915 -0.000001 -0.000001 -0.000001 -5.633350 7.713211 -14.410121 0.226452 0.278270 -47.120785 -0.000000 0.000001 -0.000000 0.000003 0.000002 -0.000003 -5.532803 10.672749 2.720147 -40.331820 -26.475721 31.254068 31.604477 113.060845 -31.458185 -7.371033 11.217578 -13.032099 0.196125 10.570069 -10.696637 1.209456 -16.935278 3.209926 0.000001 -0.000003 0.000002 19.442748 11.173825 -13.903700 -0.119176 -0.322232 17.473487 -0.000002 0.000001 -0.000005 4.329551 2.442084 -5.373967 0.346102 -0.458866 26.328262 0.000001 0.000002 -0.000004 -7.000945 -10.690043 5.156143 0.111888 -0.085445 25.593836 0.000003 -0.000004 -0.000001 -19.431103 -20.232622 5.419745 0.221927 -0.083633 36.282515 0.000001 0.000003 0.000001 0.000003 0.000004 0.000000 -0.000000 -0.000003 0.000001 -0.000002 0.000002 -0.000001 -0.000000 -0.000003 0.000002 -0.000000 -0.000003 0.000002 -0.000000 -0.000003 0.000001 -0.000002 0.000002 -0.000001 -0.000000 -0.000003 0.000002 -0.000000 -0.000003 0.000002 -0.000000 -0.000003 0.000001 -0.000002 0.000002 -0.000001 -0.000000 0.000002 0.000000 -0.000000 0.000002 0.000000 -0.000000 0.000002 0.000000 
